<svg width="150" height="70" viewBox="0 0 150 70" fill="none" xmlns="http://www.w3.org/2000/svg">
<rect width="150" height="70" rx="20" fill="#0B1F0E"/>
<rect width="150" height="70" rx="20" fill="url(#paint0_radial_2656_1516)" fill-opacity="0.7"/>
<path d="M52.3942 42H49.4283L53.9474 28.9091H57.5142L62.027 42H59.0611L55.782 31.9006H55.6797L52.3942 42ZM52.2088 36.8544H59.2145V39.0149H52.2088V36.8544ZM63.3715 45.6818V32.1818H66.0562V33.831H66.1776C66.2969 33.5668 66.4695 33.2983 66.6954 33.0256C66.9255 32.7486 67.2238 32.5185 67.5902 32.3352C67.961 32.1477 68.4212 32.054 68.9709 32.054C69.6868 32.054 70.3473 32.2415 70.9525 32.6165C71.5576 32.9872 72.0412 33.5476 72.4035 34.2976C72.7657 35.0433 72.9468 35.9787 72.9468 37.1037C72.9468 38.1989 72.7699 39.1236 72.4162 39.8778C72.0668 40.6278 71.5895 41.1967 70.9844 41.5845C70.3836 41.968 69.7103 42.1598 68.9645 42.1598C68.4361 42.1598 67.9865 42.0724 67.6158 41.8977C67.2493 41.723 66.9489 41.5036 66.7145 41.2393C66.4802 40.9709 66.3012 40.7003 66.1776 40.4276H66.0945V45.6818H63.3715ZM66.037 37.0909C66.037 37.6747 66.1179 38.1839 66.2799 38.6186C66.4418 39.0533 66.6762 39.392 66.983 39.6349C67.2898 39.8736 67.6627 39.9929 68.1016 39.9929C68.5448 39.9929 68.9198 39.8714 69.2266 39.6286C69.5334 39.3814 69.7657 39.0405 69.9233 38.6058C70.0853 38.1669 70.1662 37.6619 70.1662 37.0909C70.1662 36.5241 70.0874 36.0256 69.9297 35.5952C69.7721 35.1648 69.5398 34.8281 69.233 34.5852C68.9262 34.3423 68.549 34.2209 68.1016 34.2209C67.6584 34.2209 67.2834 34.3381 66.9766 34.5724C66.674 34.8068 66.4418 35.1392 66.2799 35.5696C66.1179 36 66.037 36.5071 66.037 37.0909ZM74.5821 45.6818V32.1818H77.2668V33.831H77.3882C77.5075 33.5668 77.6801 33.2983 77.906 33.0256C78.1361 32.7486 78.4344 32.5185 78.8009 32.3352C79.1716 32.1477 79.6318 32.054 80.1815 32.054C80.8975 32.054 81.558 32.2415 82.1631 32.6165C82.7682 32.9872 83.2519 33.5476 83.6141 34.2976C83.9763 35.0433 84.1574 35.9787 84.1574 37.1037C84.1574 38.1989 83.9806 39.1236 83.6269 39.8778C83.2774 40.6278 82.8002 41.1967 82.195 41.5845C81.5942 41.968 80.9209 42.1598 80.1752 42.1598C79.6467 42.1598 79.1972 42.0724 78.8264 41.8977C78.46 41.723 78.1595 41.5036 77.9252 41.2393C77.6908 40.9709 77.5118 40.7003 77.3882 40.4276H77.3051V45.6818H74.5821ZM77.2476 37.0909C77.2476 37.6747 77.3286 38.1839 77.4905 38.6186C77.6524 39.0533 77.8868 39.392 78.1936 39.6349C78.5004 39.8736 78.8733 39.9929 79.3122 39.9929C79.7554 39.9929 80.1304 39.8714 80.4372 39.6286C80.744 39.3814 80.9763 39.0405 81.134 38.6058C81.2959 38.1669 81.3769 37.6619 81.3769 37.0909C81.3769 36.5241 81.298 36.0256 81.1404 35.5952C80.9827 35.1648 80.7504 34.8281 80.4436 34.5852C80.1368 34.3423 79.7597 34.2209 79.3122 34.2209C78.869 34.2209 78.494 34.3381 78.1872 34.5724C77.8847 34.8068 77.6524 35.1392 77.4905 35.5696C77.3286 36 77.2476 36.5071 77.2476 37.0909ZM88.5158 28.9091V42H85.7927V28.9091H88.5158ZM94.9915 42.1918C93.9815 42.1918 93.1122 41.9872 92.3835 41.5781C91.6591 41.1648 91.1008 40.581 90.7088 39.8267C90.3168 39.0682 90.1207 38.1712 90.1207 37.1357C90.1207 36.1257 90.3168 35.2393 90.7088 34.4766C91.1008 33.7138 91.6527 33.1193 92.3643 32.6932C93.0802 32.267 93.9197 32.054 94.8828 32.054C95.5305 32.054 96.1335 32.1584 96.6918 32.3672C97.2543 32.5717 97.7443 32.8807 98.1619 33.294C98.5838 33.7074 98.9119 34.2273 99.1463 34.8537C99.3807 35.4759 99.4979 36.2045 99.4979 37.0398V37.7876H91.2074V36.1001H96.9347C96.9347 35.7081 96.8494 35.3608 96.679 35.0582C96.5085 34.7557 96.272 34.5192 95.9695 34.3487C95.6712 34.174 95.3239 34.0866 94.9275 34.0866C94.5142 34.0866 94.1477 34.1825 93.8281 34.3743C93.5128 34.5618 93.2656 34.8153 93.0866 35.1349C92.9077 35.4503 92.816 35.8018 92.8118 36.1896V37.794C92.8118 38.2798 92.9013 38.6996 93.0802 39.0533C93.2635 39.407 93.5213 39.6797 93.8537 39.8714C94.1861 40.0632 94.5802 40.1591 95.0362 40.1591C95.3388 40.1591 95.6158 40.1165 95.8672 40.0312C96.1186 39.946 96.3338 39.8182 96.5128 39.6477C96.6918 39.4773 96.8281 39.2685 96.9219 39.0213L99.4403 39.1875C99.3125 39.7926 99.0504 40.321 98.6541 40.7727C98.2621 41.2202 97.755 41.5696 97.1328 41.821C96.5149 42.0682 95.8011 42.1918 94.9915 42.1918Z" fill="#C6FF00"/>
<defs>
<radialGradient id="paint0_radial_2656_1516" cx="0" cy="0" r="1" gradientTransform="matrix(-164.5 77 -175.194 -21.4934 122 23.5)" gradientUnits="userSpaceOnUse">
<stop stop-color="#A6F20D"/>
<stop offset="1" stop-color="#1A3A1F" stop-opacity="0"/>
</radialGradient>
</defs>
</svg>
