<svg width="30" height="30" viewBox="0 0 30 30" fill="none" xmlns="http://www.w3.org/2000/svg">
<path d="M20 10H17.5C17.1458 10 16.8492 9.88 16.61 9.64C16.3708 9.4 16.2508 9.10334 16.25 8.75C16.2492 8.39667 16.3692 8.1 16.61 7.86C16.8508 7.62 17.1475 7.5 17.5 7.5H20V5C20 4.64584 20.12 4.34917 20.36 4.11C20.6 3.87084 20.8967 3.75084 21.25 3.75C21.6033 3.74917 21.9004 3.86917 22.1412 4.11C22.3821 4.35084 22.5017 4.6475 22.5 5V7.5H25C25.3542 7.5 25.6512 7.62 25.8912 7.86C26.1312 8.1 26.2508 8.39667 26.25 8.75C26.2492 9.10334 26.1292 9.40042 25.89 9.64125C25.6508 9.88209 25.3542 10.0017 25 10H22.5V12.5C22.5 12.8542 22.38 13.1513 22.14 13.3913C21.9 13.6313 21.6033 13.7508 21.25 13.75C20.8967 13.7492 20.6 13.6292 20.36 13.39C20.12 13.1508 20 12.8542 20 12.5V10ZM24.9375 26.25C22.3333 26.25 19.7604 25.6825 17.2188 24.5475C14.6771 23.4125 12.3646 21.8029 10.2813 19.7188C8.19792 17.6346 6.58875 15.3221 5.45375 12.7813C4.31875 10.2404 3.75083 7.6675 3.75 5.0625C3.75 4.6875 3.875 4.375 4.125 4.125C4.375 3.875 4.6875 3.75 5.0625 3.75H10.125C10.4167 3.75 10.6771 3.84917 10.9063 4.0475C11.1354 4.24584 11.2708 4.48 11.3125 4.75L12.125 9.125C12.1667 9.45834 12.1562 9.73959 12.0938 9.96875C12.0312 10.1979 11.9167 10.3958 11.75 10.5625L8.71875 13.625C9.13542 14.3958 9.63 15.1404 10.2025 15.8588C10.775 16.5771 11.4054 17.27 12.0938 17.9375C12.7396 18.5833 13.4167 19.1825 14.125 19.735C14.8333 20.2875 15.5833 20.7925 16.375 21.25L19.3125 18.3125C19.5 18.125 19.745 17.9846 20.0475 17.8913C20.35 17.7979 20.6467 17.7717 20.9375 17.8125L25.25 18.6875C25.5417 18.7708 25.7812 18.9221 25.9688 19.1413C26.1562 19.3604 26.25 19.605 26.25 19.875V24.9375C26.25 25.3125 26.125 25.625 25.875 25.875C25.625 26.125 25.3125 26.25 24.9375 26.25ZM7.53125 11.25L9.59375 9.1875L9.0625 6.25H6.28125C6.38542 7.10417 6.53125 7.94792 6.71875 8.78125C6.90625 9.61459 7.17708 10.4375 7.53125 11.25ZM18.7188 22.4375C19.5312 22.7917 20.3596 23.0729 21.2037 23.2813C22.0479 23.4896 22.8967 23.625 23.75 23.6875V20.9375L20.8125 20.3438L18.7188 22.4375Z" fill="#CCCCCC"/>
</svg>
