<svg width="150" height="70" viewBox="0 0 150 70" fill="none" xmlns="http://www.w3.org/2000/svg">
<rect width="150" height="70" rx="20" fill="#0B1F0E"/>
<rect width="150" height="70" rx="20" fill="url(#paint0_radial_2656_1509)" fill-opacity="0.7"/>
<path d="M53.8182 33.1406C53.7287 32.8295 53.603 32.5547 53.4411 32.3161C53.2791 32.0732 53.081 31.8686 52.8466 31.7024C52.6165 31.532 52.3523 31.402 52.054 31.3125C51.7599 31.223 51.4339 31.1783 51.076 31.1783C50.407 31.1783 49.8189 31.3445 49.3118 31.6768C48.8089 32.0092 48.4169 32.4929 48.1357 33.1278C47.8544 33.7585 47.7138 34.5298 47.7138 35.4418C47.7138 36.3537 47.8523 37.1293 48.1293 37.7685C48.4063 38.4077 48.7983 38.8956 49.3054 39.2322C49.8125 39.5646 50.4112 39.7308 51.1016 39.7308C51.728 39.7308 52.2628 39.62 52.706 39.3984C53.1534 39.1726 53.4943 38.8551 53.7287 38.446C53.9673 38.0369 54.0866 37.5533 54.0866 36.995L54.6491 37.0781H51.2741V34.9943H56.7521V36.6435C56.7521 37.794 56.5092 38.7827 56.0234 39.6094C55.5376 40.4318 54.8686 41.0668 54.0163 41.5142C53.1641 41.9574 52.1882 42.179 51.0888 42.179C49.8615 42.179 48.7834 41.9084 47.8544 41.3672C46.9254 40.8217 46.201 40.0483 45.6811 39.0469C45.1655 38.0412 44.9077 36.848 44.9077 35.4673C44.9077 34.4062 45.0611 33.4602 45.3679 32.6293C45.679 31.794 46.1136 31.0866 46.6719 30.5071C47.2301 29.9276 47.88 29.4865 48.6214 29.1839C49.3629 28.8814 50.1662 28.7301 51.0312 28.7301C51.7727 28.7301 52.4631 28.8388 53.1023 29.0561C53.7415 29.2692 54.3082 29.5717 54.8026 29.9638C55.3011 30.3558 55.7081 30.8224 56.0234 31.3636C56.3388 31.9006 56.5412 32.4929 56.6307 33.1406H53.8182ZM63.0361 42.1918C62.0432 42.1918 61.1845 41.9808 60.4601 41.5589C59.7399 41.1328 59.1838 40.5405 58.7918 39.782C58.3997 39.0192 58.2037 38.1349 58.2037 37.1293C58.2037 36.1151 58.3997 35.2287 58.7918 34.4702C59.1838 33.7074 59.7399 33.1151 60.4601 32.6932C61.1845 32.267 62.0432 32.054 63.0361 32.054C64.029 32.054 64.8855 32.267 65.6057 32.6932C66.3301 33.1151 66.8884 33.7074 67.2804 34.4702C67.6725 35.2287 67.8685 36.1151 67.8685 37.1293C67.8685 38.1349 67.6725 39.0192 67.2804 39.782C66.8884 40.5405 66.3301 41.1328 65.6057 41.5589C64.8855 41.9808 64.029 42.1918 63.0361 42.1918ZM63.0489 40.0824C63.5006 40.0824 63.8777 39.9545 64.1803 39.6989C64.4828 39.4389 64.7108 39.0852 64.8642 38.6378C65.0219 38.1903 65.1007 37.6811 65.1007 37.1101C65.1007 36.5391 65.0219 36.0298 64.8642 35.5824C64.7108 35.1349 64.4828 34.7812 64.1803 34.5213C63.8777 34.2614 63.5006 34.1314 63.0489 34.1314C62.5929 34.1314 62.2094 34.2614 61.8983 34.5213C61.5915 34.7812 61.3592 35.1349 61.2016 35.5824C61.0482 36.0298 60.9715 36.5391 60.9715 37.1101C60.9715 37.6811 61.0482 38.1903 61.2016 38.6378C61.3592 39.0852 61.5915 39.4389 61.8983 39.6989C62.2094 39.9545 62.5929 40.0824 63.0489 40.0824ZM73.8951 42.1918C72.9023 42.1918 72.0436 41.9808 71.3192 41.5589C70.599 41.1328 70.0429 40.5405 69.6508 39.782C69.2588 39.0192 69.0628 38.1349 69.0628 37.1293C69.0628 36.1151 69.2588 35.2287 69.6508 34.4702C70.0429 33.7074 70.599 33.1151 71.3192 32.6932C72.0436 32.267 72.9023 32.054 73.8951 32.054C74.888 32.054 75.7446 32.267 76.4648 32.6932C77.1892 33.1151 77.7474 33.7074 78.1395 34.4702C78.5315 35.2287 78.7275 36.1151 78.7275 37.1293C78.7275 38.1349 78.5315 39.0192 78.1395 39.782C77.7474 40.5405 77.1892 41.1328 76.4648 41.5589C75.7446 41.9808 74.888 42.1918 73.8951 42.1918ZM73.9079 40.0824C74.3596 40.0824 74.7368 39.9545 75.0393 39.6989C75.3419 39.4389 75.5699 39.0852 75.7233 38.6378C75.8809 38.1903 75.9598 37.6811 75.9598 37.1101C75.9598 36.5391 75.8809 36.0298 75.7233 35.5824C75.5699 35.1349 75.3419 34.7812 75.0393 34.5213C74.7368 34.2614 74.3596 34.1314 73.9079 34.1314C73.452 34.1314 73.0684 34.2614 72.7574 34.5213C72.4505 34.7812 72.2183 35.1349 72.0606 35.5824C71.9072 36.0298 71.8305 36.5391 71.8305 37.1101C71.8305 37.6811 71.9072 38.1903 72.0606 38.6378C72.2183 39.0852 72.4505 39.4389 72.7574 39.6989C73.0684 39.9545 73.452 40.0824 73.9079 40.0824ZM84.7414 45.8864C83.8593 45.8864 83.1029 45.7649 82.4723 45.522C81.8458 45.2834 81.3473 44.9574 80.9765 44.544C80.6058 44.1307 80.365 43.6662 80.2542 43.1506L82.7727 42.8118C82.8494 43.0078 82.9708 43.1911 83.137 43.3615C83.3032 43.532 83.5227 43.6683 83.7954 43.7706C84.0724 43.8771 84.409 43.9304 84.8053 43.9304C85.3977 43.9304 85.8856 43.7855 86.2691 43.4957C86.6569 43.2102 86.8508 42.7308 86.8508 42.0575V40.2614H86.7357C86.6164 40.5341 86.4374 40.7919 86.1988 41.0348C85.9602 41.2777 85.6534 41.4759 85.2784 41.6293C84.9034 41.7827 84.4559 41.8594 83.936 41.8594C83.1988 41.8594 82.5276 41.6889 81.9225 41.348C81.3217 41.0028 80.8423 40.4766 80.4843 39.7692C80.1306 39.0575 79.9538 38.1584 79.9538 37.0717C79.9538 35.9595 80.1349 35.0305 80.4971 34.2848C80.8593 33.5391 81.3409 32.9808 81.9417 32.6101C82.5468 32.2393 83.2095 32.054 83.9296 32.054C84.4794 32.054 84.9396 32.1477 85.3103 32.3352C85.6811 32.5185 85.9794 32.7486 86.2052 33.0256C86.4353 33.2983 86.6122 33.5668 86.7357 33.831H86.838V32.1818H89.5419V42.0959C89.5419 42.9311 89.3373 43.63 88.9282 44.1925C88.5191 44.755 87.9524 45.1768 87.2279 45.4581C86.5078 45.7436 85.6789 45.8864 84.7414 45.8864ZM84.799 39.8139C85.2379 39.8139 85.6086 39.7053 85.9112 39.4879C86.218 39.2663 86.4524 38.951 86.6143 38.5419C86.7805 38.1286 86.8636 37.6342 86.8636 37.0589C86.8636 36.4837 86.7826 35.9851 86.6207 35.5632C86.4588 35.1371 86.2244 34.8068 85.9176 34.5724C85.6107 34.3381 85.2379 34.2209 84.799 34.2209C84.3515 34.2209 83.9744 34.3423 83.6676 34.5852C83.3607 34.8239 83.1285 35.1562 82.9708 35.5824C82.8132 36.0085 82.7343 36.5007 82.7343 37.0589C82.7343 37.6257 82.8132 38.1158 82.9708 38.5291C83.1328 38.9382 83.365 39.2557 83.6676 39.4815C83.9744 39.7031 84.3515 39.8139 84.799 39.8139ZM94.2518 28.9091V42H91.5288V28.9091H94.2518ZM100.727 42.1918C99.7175 42.1918 98.8482 41.9872 98.1195 41.5781C97.3951 41.1648 96.8369 40.581 96.4448 39.8267C96.0528 39.0682 95.8567 38.1712 95.8567 37.1357C95.8567 36.1257 96.0528 35.2393 96.4448 34.4766C96.8369 33.7138 97.3887 33.1193 98.1004 32.6932C98.8163 32.267 99.6558 32.054 100.619 32.054C101.267 32.054 101.87 32.1584 102.428 32.3672C102.99 32.5717 103.48 32.8807 103.898 33.294C104.32 33.7074 104.648 34.2273 104.882 34.8537C105.117 35.4759 105.234 36.2045 105.234 37.0398V37.7876H96.9434V36.1001H102.671C102.671 35.7081 102.585 35.3608 102.415 35.0582C102.245 34.7557 102.008 34.5192 101.705 34.3487C101.407 34.174 101.06 34.0866 100.664 34.0866C100.25 34.0866 99.8837 34.1825 99.5641 34.3743C99.2488 34.5618 99.0016 34.8153 98.8227 35.1349C98.6437 35.4503 98.5521 35.8018 98.5478 36.1896V37.794C98.5478 38.2798 98.6373 38.6996 98.8163 39.0533C98.9995 39.407 99.2573 39.6797 99.5897 39.8714C99.9221 40.0632 100.316 40.1591 100.772 40.1591C101.075 40.1591 101.352 40.1165 101.603 40.0312C101.855 39.946 102.07 39.8182 102.249 39.6477C102.428 39.4773 102.564 39.2685 102.658 39.0213L105.176 39.1875C105.049 39.7926 104.786 40.321 104.39 40.7727C103.998 41.2202 103.491 41.5696 102.869 41.821C102.251 42.0682 101.537 42.1918 100.727 42.1918Z" fill="#C6FF00"/>
<defs>
<radialGradient id="paint0_radial_2656_1509" cx="0" cy="0" r="1" gradientTransform="matrix(-164.5 77 -175.194 -21.4934 122 23.5)" gradientUnits="userSpaceOnUse">
<stop stop-color="#A6F20D"/>
<stop offset="1" stop-color="#1A3A1F" stop-opacity="0"/>
</radialGradient>
</defs>
</svg>
