<svg width="30" height="30" viewBox="0 0 30 30" fill="none" xmlns="http://www.w3.org/2000/svg">
<path d="M16.1001 8.77123L22.0676 10.36M14.8226 13.5162L17.8051 14.3112M14.9714 22.4575L16.1639 22.7762C19.5389 23.6762 21.2264 24.125 22.5564 23.3612C23.8851 22.5987 24.3376 20.92 25.2414 17.565L26.5201 12.8187C27.4251 9.46248 27.8764 7.78498 27.1089 6.46248C26.3414 5.13998 24.6551 4.69123 21.2789 3.79248L20.0864 3.47373C16.7114 2.57373 15.0239 2.12498 13.6951 2.88873C12.3651 3.65123 11.9126 5.32998 11.0076 8.68498L9.73014 13.4312C8.82514 16.7875 8.37264 18.465 9.14139 19.7875C9.90889 21.1087 11.5964 21.5587 14.9714 22.4575Z" stroke="#CCCCCC" stroke-width="1.5" stroke-linecap="round"/>
<path d="M15 26.1825L13.81 26.5075C10.4425 27.4237 8.76003 27.8825 7.43253 27.1037C6.10753 26.3262 5.65503 24.615 4.75378 21.1937L3.47753 16.3537C2.57503 12.9325 2.12378 11.2212 2.89003 9.8737C3.55253 8.70745 5.00003 8.74995 6.87503 8.74995" stroke="#CCCCCC" stroke-width="1.5" stroke-linecap="round"/>
</svg>
