<svg width="10" height="10" viewBox="0 0 10 10" fill="none" xmlns="http://www.w3.org/2000/svg">
<path d="M5.12783 5.84001C5.43563 5.87157 5.72079 6.01617 5.92814 6.24584C6.13549 6.47551 6.25029 6.77392 6.25033 7.08334C6.25033 7.72584 5.85866 8.25751 5.33199 8.60834C4.80283 8.96168 4.09449 9.16668 3.33366 9.16668C2.57283 9.16668 1.86449 8.96168 1.33533 8.60834C0.807826 8.25834 0.416992 7.72584 0.416992 7.08334C0.416992 6.75182 0.548688 6.43388 0.783109 6.19946C1.01753 5.96504 1.33547 5.83334 1.66699 5.83334H5.00033L5.12783 5.84001ZM8.33616 5.83334C8.66768 5.83334 8.98562 5.96504 9.22004 6.19946C9.45446 6.43388 9.58616 6.75182 9.58616 7.08334C9.58616 7.66251 9.22616 8.09251 8.76699 8.35668C8.31033 8.61918 7.71283 8.75001 7.08616 8.75001C6.87505 8.74945 6.66921 8.7339 6.46866 8.70334C6.82949 8.27668 7.08449 7.73168 7.08449 7.08334C7.08353 6.63219 6.93614 6.19354 6.66449 5.83334H8.33616ZM3.33533 1.24668C3.58516 1.24152 3.8335 1.2863 4.06581 1.37837C4.29811 1.47044 4.5097 1.60796 4.68817 1.78286C4.86664 1.95776 5.0084 2.16653 5.10513 2.39693C5.20187 2.62733 5.25165 2.87473 5.25154 3.12461C5.25142 3.3745 5.20143 3.62184 5.10449 3.85216C5.00755 4.08247 4.8656 4.29112 4.68698 4.46586C4.50835 4.64061 4.29664 4.77794 4.06426 4.8698C3.83187 4.96167 3.58349 5.00622 3.33366 5.00084C2.84267 4.9905 2.37529 4.78819 2.03171 4.43729C1.68813 4.0864 1.49571 3.61485 1.49571 3.12376C1.49571 2.63267 1.68813 2.16112 2.03171 1.81022C2.37529 1.45933 2.84267 1.25702 3.33366 1.24668M7.29199 2.08084C7.4835 2.08084 7.67314 2.11856 7.85007 2.19185C8.02701 2.26514 8.18777 2.37256 8.32319 2.50798C8.45861 2.6434 8.56603 2.80416 8.63932 2.9811C8.7126 3.15803 8.75033 3.34767 8.75033 3.53918C8.75033 3.73069 8.7126 3.92032 8.63932 4.09726C8.56603 4.27419 8.45861 4.43495 8.32319 4.57037C8.18777 4.70579 8.02701 4.81321 7.85007 4.8865C7.67314 4.95979 7.4835 4.99751 7.29199 4.99751C6.90522 4.99751 6.53429 4.84386 6.26079 4.57037C5.9873 4.29688 5.83366 3.92595 5.83366 3.53918C5.83366 3.1524 5.9873 2.78147 6.26079 2.50798C6.53429 2.23449 6.90522 2.08084 7.29199 2.08084Z" fill="#F05230"/>
</svg>
