<svg width="219" height="219" viewBox="0 0 219 219" fill="none" xmlns="http://www.w3.org/2000/svg">
<circle cx="109.5" cy="109.5" r="109.5" fill="#0B1F0E"/>
<circle cx="109.5" cy="109.5" r="109.5" fill="url(#paint0_radial_2598_2031)"/>
<path d="M175.5 104.05V96C175.5 92.15 172.35 89 168.5 89H161.5C157.65 89 154.5 92.15 154.5 96V103H147.5V96C147.5 92.15 144.35 89 140.5 89H133.5C129.65 89 126.5 92.15 126.5 96V103H119.5V82C119.5 78.15 116.35 75 112.5 75H105.5C101.65 75 98.5 78.15 98.5 82V103H91.5V96C91.5 92.15 88.35 89 84.5 89H77.5C73.65 89 70.5 92.15 70.5 96V103H63.5V96C63.5 92.15 60.35 89 56.5 89H49.5C45.65 89 42.5 92.15 42.5 96V104.05C40.47 105.31 39 107.41 39 110C39 113.85 42.15 117 46 117H54.75C59.65 130.44 73.58 149.06 102 151.65V166H95C87.3 166 81 172.3 81 180H137C137 176.287 135.525 172.726 132.899 170.101C130.274 167.475 126.713 166 123 166H116V151.65C144.42 148.99 158.35 130.44 163.25 117H172C175.85 117 179 113.85 179 110C179 107.41 177.53 105.31 175.5 104.05ZM70.15 117H102V137.58C83.38 135.41 74.35 124.77 70.15 117ZM116 137.58V117H147.85C143.65 124.77 134.62 135.41 116 137.58ZM109 68C114.81 68 119.5 63.31 119.5 57.5C119.5 51.69 114.81 40 109 40C103.19 40 98.5 51.69 98.5 57.5C98.5 63.31 103.19 68 109 68ZM109 55.75C110.96 55.75 112.5 57.29 112.5 59.25C112.5 61.21 110.96 62.75 109 62.75C107.04 62.75 105.5 61.21 105.5 59.25C105.5 57.29 107.04 55.75 109 55.75ZM137 82C142.81 82 147.5 77.31 147.5 71.5C147.5 65.69 142.81 54 137 54C131.19 54 126.5 65.69 126.5 71.5C126.5 77.31 131.19 82 137 82ZM137 69.75C138.96 69.75 140.5 71.29 140.5 73.25C140.5 75.21 138.96 76.75 137 76.75C135.04 76.75 133.5 75.21 133.5 73.25C133.5 71.29 135.04 69.75 137 69.75ZM165 82C170.81 82 175.5 77.31 175.5 71.5C175.5 65.69 170.81 54 165 54C159.19 54 154.5 65.69 154.5 71.5C154.5 77.31 159.19 82 165 82ZM165 69.75C166.96 69.75 168.5 71.29 168.5 73.25C168.5 75.21 166.96 76.75 165 76.75C163.04 76.75 161.5 75.21 161.5 73.25C161.5 71.29 163.04 69.75 165 69.75ZM53 82C58.81 82 63.5 77.31 63.5 71.5C63.5 65.69 58.81 54 53 54C47.19 54 42.5 65.69 42.5 71.5C42.5 77.31 47.19 82 53 82ZM53 69.75C54.96 69.75 56.5 71.29 56.5 73.25C56.5 75.21 54.96 76.75 53 76.75C51.04 76.75 49.5 75.21 49.5 73.25C49.5 71.29 51.04 69.75 53 69.75ZM81 82C86.81 82 91.5 77.31 91.5 71.5C91.5 65.69 86.81 54 81 54C75.19 54 70.5 65.69 70.5 71.5C70.5 77.31 75.19 82 81 82ZM81 69.75C82.96 69.75 84.5 71.29 84.5 73.25C84.5 75.21 82.96 76.75 81 76.75C79.04 76.75 77.5 75.21 77.5 73.25C77.5 71.29 79.04 69.75 81 69.75Z" fill="#C6FF00"/>
<defs>
<radialGradient id="paint0_radial_2598_2031" cx="0" cy="0" r="1" gradientTransform="matrix(-158.538 171.961 -171.961 -33.7318 158.538 47.0387)" gradientUnits="userSpaceOnUse">
<stop stop-color="#A6F20D"/>
<stop offset="1" stop-color="#1A3A1F" stop-opacity="0"/>
</radialGradient>
</defs>
</svg>
