<svg width="24" height="24" viewBox="0 0 24 24" fill="none" xmlns="http://www.w3.org/2000/svg">
<path fill-rule="evenodd" clip-rule="evenodd" d="M4.00032 11.9999C3.99927 10.3747 4.56381 8.79966 5.5971 7.54512C6.63038 6.29058 8.06801 5.4347 9.66338 5.12428C11.2587 4.81386 12.9124 5.06827 14.3407 5.84384C15.769 6.61942 16.8829 7.86784 17.4913 9.37494C17.592 9.61904 17.7851 9.81341 18.0286 9.91565C18.272 10.0179 18.546 10.0197 18.7908 9.92068C19.0356 9.82166 19.2312 9.62985 19.3351 9.38711C19.439 9.14436 19.4427 8.87038 19.3453 8.62494C18.8828 7.47162 18.1865 6.42654 17.3002 5.55549C16.414 4.68444 15.3571 4.00627 14.196 3.56368C13.0348 3.12109 11.7946 2.92367 10.5535 2.98382C9.31231 3.04398 8.09703 3.36042 6.98415 3.91323C5.87126 4.46604 4.88486 5.24325 4.08704 6.19592C3.28922 7.1486 2.69725 8.25612 2.34839 9.44877C1.99954 10.6414 1.90136 11.8934 2.06002 13.1258C2.21869 14.3583 2.63077 15.5445 3.27032 16.6099L2.49032 19.2589C2.43905 19.4328 2.43559 19.6172 2.4803 19.7928C2.52501 19.9684 2.61623 20.1287 2.74438 20.2569C2.87252 20.385 3.03284 20.4763 3.20846 20.521C3.38408 20.5657 3.56851 20.5622 3.74232 20.5109L6.39232 19.7309C7.45815 20.3684 8.64498 20.7771 9.87732 20.9309C10.1406 20.9638 10.4061 20.8908 10.6154 20.7279C10.8248 20.5651 10.9609 20.3257 10.9938 20.0624C11.0267 19.7992 10.9537 19.5337 10.7908 19.3243C10.6279 19.1149 10.3886 18.9788 10.1253 18.9459C9.10011 18.8183 8.11624 18.4637 7.24532 17.9079C7.07342 17.798 6.87999 17.7262 6.67801 17.6972C6.47603 17.6682 6.2702 17.6828 6.07432 17.7399L4.92232 18.0789L5.26132 16.9269C5.38132 16.5189 5.30832 16.0929 5.09332 15.7569C4.37723 14.6349 3.9979 13.331 4.00032 11.9999ZM20.0003 16.4999C20.0002 15.7233 19.7419 14.9688 19.2659 14.3552C18.7899 13.7415 18.1234 13.3036 17.3712 13.1104C16.619 12.9171 15.8239 12.9795 15.1111 13.2878C14.3983 13.5961 13.8082 14.1326 13.4339 14.813C13.0595 15.4935 12.922 16.2791 13.0432 17.0462C13.1643 17.8133 13.5371 18.5183 14.1029 19.0503C14.6687 19.5822 15.3954 19.9109 16.1685 19.9845C16.9416 20.0581 17.7173 19.8725 18.3733 19.4569C18.6434 19.2851 18.9688 19.2226 19.2833 19.2819C19.2236 18.9675 19.2859 18.6422 19.4573 18.3719C19.8119 17.8119 20.0002 17.1628 20.0003 16.4999ZM16.5003 10.9999C17.4559 10.9999 18.395 11.2488 19.2251 11.7221C20.0552 12.1954 20.7476 12.8768 21.2342 13.6992C21.7208 14.5216 21.9848 15.4566 22 16.412C22.0153 17.3675 21.7814 18.3104 21.3213 19.1479L21.7073 20.4589C21.7584 20.6322 21.7617 20.816 21.7172 20.991C21.6726 21.166 21.5816 21.3258 21.4539 21.4535C21.3262 21.5812 21.1664 21.6722 20.9914 21.7168C20.8164 21.7614 20.6326 21.758 20.4593 21.7069L19.1493 21.3209C18.4143 21.7246 17.5967 21.9548 16.759 21.9939C15.9213 22.0331 15.0858 21.8802 14.3163 21.547C13.5468 21.2137 12.8636 20.7089 12.3192 20.0711C11.7747 19.4333 11.3832 18.6795 11.1747 17.8673C10.9663 17.055 10.9463 16.2058 11.1163 15.3847C11.2864 14.5635 11.6419 13.7921 12.1558 13.1294C12.6697 12.4668 13.3283 11.9304 14.0813 11.5613C14.8343 11.1922 15.6617 11.0002 16.5003 10.9999Z" fill="white"/>
</svg>
