<svg width="24" height="24" viewBox="0 0 24 24" fill="none" xmlns="http://www.w3.org/2000/svg">
<path d="M22.25 16C22.4489 16 22.6397 16.079 22.7803 16.2197C22.921 16.3603 23 16.5511 23 16.75C22.9999 17.8797 22.5972 18.9724 21.8641 19.8319C21.131 20.6915 20.1155 21.2616 19 21.44V22.25C19 22.4489 18.921 22.6397 18.7803 22.7803C18.6397 22.921 18.4489 23 18.25 23C18.0511 23 17.8603 22.921 17.7197 22.7803C17.579 22.6397 17.5 22.4489 17.5 22.25V21.44C16.3845 21.2616 15.369 20.6915 14.6359 19.8319C13.9028 18.9724 13.5001 17.8797 13.5 16.75C13.5 16.5511 13.579 16.3603 13.7197 16.2197C13.8603 16.079 14.0511 16 14.25 16C14.4489 16 14.6397 16.079 14.7803 16.2197C14.921 16.3603 15 16.5511 15 16.75C15 17.612 15.3424 18.4386 15.9519 19.0481C16.5614 19.6576 17.388 20 18.25 20C19.112 20 19.9386 19.6576 20.5481 19.0481C21.1576 18.4386 21.5 17.612 21.5 16.75C21.5 16.5511 21.579 16.3603 21.7197 16.2197C21.8603 16.079 22.0511 16 22.25 16ZM18.75 4C19.4793 4 20.1788 4.28973 20.6945 4.80546C21.2103 5.32118 21.5 6.02065 21.5 6.75V14.25C21.5 13.1 20.902 12.09 20 11.512V6.75C20 6.06 19.44 5.5 18.75 5.5H4.25C3.56 5.5 3 6.06 3 6.75V17.25C3 17.94 3.56 18.5 4.25 18.5H12.773C12.945 19.039 13.193 19.543 13.506 20H4.25C3.88886 20 3.53127 19.9289 3.19762 19.7907C2.86398 19.6525 2.56082 19.4499 2.30546 19.1945C2.0501 18.9392 1.84753 18.636 1.70933 18.3024C1.57113 17.9687 1.5 17.6111 1.5 17.25V6.75C1.5 6.02065 1.78973 5.32118 2.30546 4.80546C2.82118 4.28973 3.52065 4 4.25 4H18.75ZM18.25 12C18.8467 12 19.419 12.2371 19.841 12.659C20.2629 13.081 20.5 13.6533 20.5 14.25V16.75C20.5 17.3467 20.2629 17.919 19.841 18.341C19.419 18.7629 18.8467 19 18.25 19C17.6533 19 17.081 18.7629 16.659 18.341C16.2371 17.919 16 17.3467 16 16.75V14.25C16 13.6533 16.2371 13.081 16.659 12.659C17.081 12.2371 17.6533 12 18.25 12ZM11.75 14C11.9489 14 12.1397 14.079 12.2803 14.2197C12.421 14.3603 12.5 14.5511 12.5 14.75C12.5 14.9489 12.421 15.1397 12.2803 15.2803C12.1397 15.421 11.9489 15.5 11.75 15.5H6.25C6.05109 15.5 5.86032 15.421 5.71967 15.2803C5.57902 15.1397 5.5 14.9489 5.5 14.75C5.5 14.5511 5.57902 14.3603 5.71967 14.2197C5.86032 14.079 6.05109 14 6.25 14H11.75ZM13.75 11C13.9489 11 14.1397 11.079 14.2803 11.2197C14.421 11.3603 14.5 11.5511 14.5 11.75C14.5 11.9489 14.421 12.1397 14.2803 12.2803C14.1397 12.421 13.9489 12.5 13.75 12.5H6.25C6.05109 12.5 5.86032 12.421 5.71967 12.2803C5.57902 12.1397 5.5 11.9489 5.5 11.75C5.5 11.5511 5.57902 11.3603 5.71967 11.2197C5.86032 11.079 6.05109 11 6.25 11H13.75ZM10.75 8C10.9489 8 11.1397 8.07902 11.2803 8.21967C11.421 8.36032 11.5 8.55109 11.5 8.75C11.5 8.94891 11.421 9.13968 11.2803 9.28033C11.1397 9.42098 10.9489 9.5 10.75 9.5H6.25C6.05109 9.5 5.86032 9.42098 5.71967 9.28033C5.57902 9.13968 5.5 8.94891 5.5 8.75C5.5 8.55109 5.57902 8.36032 5.71967 8.21967C5.86032 8.07902 6.05109 8 6.25 8H10.75Z" fill="white"/>
</svg>
