<svg width="22" height="22" viewBox="0 0 22 22" fill="none" xmlns="http://www.w3.org/2000/svg">
<path d="M17.1539 7.70088L16.9284 8.21972C16.8932 8.3042 16.8337 8.37637 16.7575 8.42713C16.6814 8.4779 16.5919 8.50499 16.5003 8.50499C16.4088 8.50499 16.3193 8.4779 16.2431 8.42713C16.1669 8.37637 16.1075 8.3042 16.0722 8.21972L15.8467 7.70088C15.4503 6.78305 14.7242 6.04714 13.8117 5.63838L13.116 5.32763C13.0316 5.28881 12.9601 5.22659 12.91 5.14836C12.8598 5.07013 12.8332 4.97917 12.8332 4.88626C12.8332 4.79335 12.8598 4.70239 12.91 4.62416C12.9601 4.54593 13.0316 4.48371 13.116 4.44488L13.7732 4.15247C14.7086 3.73207 15.4471 2.96894 15.8367 2.0203L16.0686 1.46022C16.1026 1.37346 16.1621 1.29897 16.2391 1.24647C16.3161 1.19397 16.4071 1.16589 16.5003 1.16589C16.5935 1.16589 16.6846 1.19397 16.7616 1.24647C16.8386 1.29897 16.898 1.37346 16.9321 1.46022L17.164 2.01938C17.5531 2.9682 18.2913 3.73166 19.2265 4.15247L19.8847 4.4458C19.9688 4.48474 20.0401 4.54695 20.09 4.62508C20.1399 4.70321 20.1665 4.79399 20.1665 4.88672C20.1665 4.97944 20.1399 5.07023 20.09 5.14836C20.0401 5.22649 19.9688 5.2887 19.8847 5.32763L19.188 5.63747C18.2757 6.04664 17.55 6.78287 17.1539 7.70088ZM6.417 3.00022H11.0003V5.75022H8.25033V15.8336C8.25015 16.6407 7.98366 17.4252 7.49219 18.0654C7.00072 18.7057 6.31173 19.1658 5.53207 19.3746C4.75241 19.5834 3.92566 19.5291 3.18002 19.2201C2.43437 18.9111 1.81152 18.3647 1.40803 17.6657C1.00455 16.9667 0.842988 16.154 0.948407 15.3538C1.05382 14.5536 1.42033 13.8105 1.99108 13.2399C2.56184 12.6692 3.30495 12.3027 4.10517 12.1974C4.90539 12.0921 5.71801 12.2537 6.417 12.6573V3.00022ZM16.5003 12.6573V10.3336H18.3337V15.8336C18.3335 16.6407 18.067 17.4252 17.5755 18.0654C17.0841 18.7057 16.3951 19.1658 15.6154 19.3746C14.8357 19.5834 14.009 19.5291 13.2634 19.2201C12.5177 18.9111 11.8948 18.3647 11.4914 17.6657C11.0879 16.9667 10.9263 16.154 11.0317 15.3538C11.1372 14.5536 11.5037 13.8105 12.0744 13.2399C12.6452 12.6692 13.3883 12.3027 14.1885 12.1974C14.9887 12.0921 15.8013 12.2537 16.5003 12.6573Z" fill="white"/>
</svg>
