<svg width="30" height="30" viewBox="0 0 30 30" fill="none" xmlns="http://www.w3.org/2000/svg">
<path d="M22 0V12C22 12 20 10.5 19 10.5C17.5 10.5 16.5 12.5 18 14L22 18V23H8V0H22ZM9 19V22H12C12 20 11 19 9 19ZM21 19C19 19 18 20 18 22H21V19ZM14.5 9C11.98 9 11 10.34 11 12C11 13.66 12 15 14.5 15C16.5 15 17 14 17 14C16 12.5 16.5 11 17.5 10C17.5 10 16.5 9 14.5 9ZM21 1H18C18 3 19 4 21 4V1ZM12 1H9V4C11 4 12 3 12 1Z" fill="#CCCCCC"/>
<path d="M7 22L9 24H21L23 22V18C23 18 18.44 13.9 18 13C17.5 12 18 9.99996 21 12C22.86 13.24 25 15 26 16C27 17 28 22 28 24C28 26 24 30 24 30H16C16 30 12.26 27.7 10 26C2 20 2 16 7 19C2 16 1 12 7 15C1 12 1 7.99996 7 11C1 7.99996 4 5.99996 7 7.49996V22Z" fill="#CCCCCC"/>
</svg>
