<svg width="22" height="22" viewBox="0 0 22 22" fill="none" xmlns="http://www.w3.org/2000/svg">
<path d="M1.75 10.75C6.25 10.75 10.75 6.25 10.75 1.75C10.75 6.25 15.25 10.75 19.75 10.75C15.25 10.75 10.75 15.25 10.75 19.75C10.75 15.25 6.25 10.75 1.75 10.75ZM0.75 18.25C1.583 18.25 3.25 16.583 3.25 15.75C3.25 16.583 4.917 18.25 5.75 18.25C4.917 18.25 3.25 19.917 3.25 20.75C3.25 19.917 1.583 18.25 0.75 18.25ZM14.75 3.75C15.75 3.75 17.75 1.75 17.75 0.75C17.75 1.75 19.75 3.75 20.75 3.75C19.75 3.75 17.75 5.75 17.75 6.75C17.75 5.75 15.75 3.75 14.75 3.75Z" stroke="#1A3A1F" stroke-width="1.5" stroke-linejoin="round"/>
</svg>
