<svg width="20" height="22" viewBox="0 0 20 22" fill="none" xmlns="http://www.w3.org/2000/svg">
<path d="M10.5932 21.2579L10.5822 21.2599L10.5112 21.2949L10.4912 21.2989L10.4772 21.2949L10.4062 21.2599C10.3955 21.2566 10.3875 21.2583 10.3822 21.2649L10.3782 21.2749L10.3612 21.7029L10.3662 21.7229L10.3762 21.7359L10.4802 21.8099L10.4952 21.8139L10.5072 21.8099L10.6112 21.7359L10.6232 21.7199L10.6272 21.7029L10.6102 21.2759C10.6075 21.2653 10.6018 21.2593 10.5932 21.2579ZM10.8582 21.1449L10.8452 21.1469L10.6602 21.2399L10.6502 21.2499L10.6472 21.2609L10.6652 21.6909L10.6702 21.7029L10.6782 21.7099L10.8792 21.8029C10.8918 21.8063 10.9015 21.8036 10.9082 21.7949L10.9122 21.7809L10.8782 21.1669C10.8748 21.1549 10.8682 21.1476 10.8582 21.1449ZM10.1432 21.1469C10.1388 21.1443 10.1335 21.1434 10.1285 21.1445C10.1234 21.1456 10.119 21.1487 10.1162 21.1529L10.1102 21.1669L10.0762 21.7809C10.0768 21.7929 10.0825 21.8009 10.0932 21.8049L10.1082 21.8029L10.3092 21.7099L10.3192 21.7019L10.3232 21.6909L10.3402 21.2609L10.3372 21.2489L10.3272 21.2389L10.1432 21.1469Z" fill="#F05230"/>
<path d="M10.191 17.998C10.3223 17.9949 10.453 18.0177 10.5755 18.0651C10.698 18.1125 10.8099 18.1836 10.905 18.2743C11 18.365 11.0763 18.4735 11.1294 18.5936C11.1825 18.7137 11.2114 18.8432 11.2145 18.9745C11.2176 19.1058 11.1948 19.2365 11.1474 19.359C11.1 19.4815 11.0289 19.5934 10.9382 19.6885C10.8475 19.7835 10.739 19.8598 10.6189 19.9129C10.4987 19.966 10.3693 19.9949 10.238 19.998L10 20L9.762 19.997C9.63068 19.9939 9.50125 19.965 9.38111 19.9119C9.26096 19.8588 9.15245 19.7825 9.06178 19.6875C8.9711 19.5924 8.90003 19.4805 8.85263 19.358C8.80522 19.2355 8.78241 19.1048 8.7855 18.9735C8.78859 18.8422 8.81751 18.7127 8.87061 18.5926C8.92372 18.4725 8.99997 18.364 9.09501 18.2733C9.19005 18.1826 9.30202 18.1115 9.42453 18.0641C9.54703 18.0167 9.67768 17.9939 9.809 17.997L10 18L10.191 17.998ZM15.538 17.165C15.6065 17.2771 15.6523 17.4016 15.6727 17.5313C15.6931 17.6611 15.6877 17.7936 15.6569 17.9213C15.626 18.049 15.5703 18.1693 15.493 18.2755C15.4156 18.3817 15.3181 18.4715 15.206 18.54C15.0706 18.6226 14.9332 18.7019 14.794 18.778C14.6788 18.841 14.5522 18.8808 14.4217 18.8949C14.2911 18.909 14.159 18.8973 14.0329 18.8604C13.7783 18.7859 13.5638 18.6132 13.4365 18.3805C13.3092 18.1478 13.2796 17.874 13.3541 17.6194C13.4286 17.3648 13.6013 17.1503 13.834 17.023C13.9455 16.9623 14.0555 16.8989 14.164 16.833C14.3903 16.695 14.6621 16.6524 14.9197 16.7146C15.1774 16.7769 15.3997 16.9389 15.538 17.165ZM5.837 16.833C5.945 16.8997 6.055 16.963 6.167 17.023C6.39973 17.1504 6.5723 17.3651 6.64675 17.6198C6.7212 17.8745 6.69144 18.1483 6.564 18.381C6.43656 18.6137 6.2219 18.7863 5.96722 18.8608C5.71255 18.9352 5.43873 18.9054 5.206 18.778C5.0668 18.7019 4.92943 18.6226 4.794 18.54C4.56764 18.4017 4.40549 18.1791 4.34323 17.9213C4.28097 17.6634 4.32369 17.3914 4.462 17.165C4.60031 16.9386 4.82288 16.7765 5.08074 16.7142C5.3386 16.652 5.61064 16.6947 5.837 16.833ZM10 4C11.5913 4 13.1174 4.63214 14.2426 5.75736C15.3679 6.88258 16 8.4087 16 10C16 11.5913 15.3679 13.1174 14.2426 14.2426C13.1174 15.3679 11.5913 16 10 16C8.4087 16 6.88258 15.3679 5.75736 14.2426C4.63214 13.1174 4 11.5913 4 10C4 8.4087 4.63214 6.88258 5.75736 5.75736C6.88258 4.63214 8.4087 4 10 4ZM18.38 13.437C18.6127 13.5642 18.7854 13.7786 18.86 14.0331C18.9347 14.2876 18.9052 14.5613 18.778 14.794C18.702 14.934 18.6227 15.0713 18.54 15.206C18.4715 15.3181 18.3816 15.4156 18.2755 15.4929C18.1693 15.5703 18.0489 15.6259 17.9213 15.6568C17.6634 15.719 17.3914 15.6763 17.165 15.538C16.9386 15.3997 16.7765 15.1771 16.7142 14.9193C16.652 14.6614 16.6947 14.3894 16.833 14.163C16.8997 14.055 16.963 13.945 17.023 13.833C17.0861 13.7178 17.1714 13.6162 17.2738 13.5339C17.3762 13.4517 17.4938 13.3904 17.62 13.3537C17.7461 13.3169 17.8782 13.3053 18.0088 13.3196C18.1394 13.3339 18.2658 13.3738 18.381 13.437H18.38ZM2.977 13.834C3.03771 13.9455 3.10106 14.0555 3.167 14.164C3.23696 14.2761 3.284 14.401 3.30541 14.5314C3.32682 14.6618 3.32217 14.7951 3.29173 14.9237C3.2613 15.0523 3.20567 15.1736 3.12807 15.2806C3.05047 15.3876 2.95245 15.4781 2.83965 15.5469C2.72686 15.6158 2.60153 15.6616 2.47092 15.6817C2.34032 15.7019 2.20701 15.6959 2.07872 15.6642C1.95043 15.6325 1.8297 15.5757 1.7235 15.497C1.6173 15.4184 1.52774 15.3195 1.46 15.206C1.37741 15.0706 1.29805 14.9332 1.222 14.794C1.0947 14.5613 1.06506 14.2875 1.1396 14.0329C1.21415 13.7783 1.38677 13.5638 1.6195 13.4365C1.85223 13.3092 2.12599 13.2796 2.38058 13.3541C2.63516 13.4286 2.8497 13.6013 2.977 13.834ZM10 6C8.93913 6 7.92172 6.42143 7.17157 7.17157C6.42143 7.92172 6 8.93913 6 10C6 11.0609 6.42143 12.0783 7.17157 12.8284C7.92172 13.5786 8.93913 14 10 14C11.0609 14 12.0783 13.5786 12.8284 12.8284C13.5786 12.0783 14 11.0609 14 10C14 8.93913 13.5786 7.92172 12.8284 7.17157C12.0783 6.42143 11.0609 6 10 6ZM10 8C10.5304 8 11.0391 8.21071 11.4142 8.58579C11.7893 8.96086 12 9.46957 12 10C12 10.5304 11.7893 11.0391 11.4142 11.4142C11.0391 11.7893 10.5304 12 10 12C9.46957 12 8.96086 11.7893 8.58579 11.4142C8.21071 11.0391 8 10.5304 8 10C8 9.46957 8.21071 8.96086 8.58579 8.58579C8.96086 8.21071 9.46957 8 10 8ZM1.026 8.785C1.15733 8.78811 1.28677 8.81707 1.4069 8.87023C1.52704 8.92338 1.63553 8.99969 1.72616 9.09478C1.8168 9.18988 1.88781 9.3019 1.93514 9.42445C1.98247 9.547 2.00519 9.67767 2.002 9.809L2 10C2 10.064 2.00067 10.1277 2.002 10.191C2.00823 10.4562 1.90885 10.713 1.72572 10.905C1.54259 11.0969 1.29072 11.2083 1.0255 11.2145C0.760284 11.2207 0.503454 11.1214 0.31151 10.9382C0.119567 10.7551 0.00823268 10.5032 0.00200009 10.238L0 10C0 9.92 0.00100002 9.84067 0.00300002 9.762C0.00598591 9.63067 0.0348192 9.50121 0.0878525 9.38102C0.140886 9.26084 0.21708 9.15228 0.312081 9.06155C0.407082 8.97082 0.519029 8.8997 0.641526 8.85225C0.764023 8.8048 0.894669 8.78194 1.026 8.785ZM18.974 8.785C19.1053 8.78194 19.236 8.8048 19.3585 8.85225C19.481 8.8997 19.5929 8.97082 19.6879 9.06155C19.7829 9.15228 19.8591 9.26084 19.9121 9.38102C19.9652 9.50121 19.994 9.63067 19.997 9.762L20 10L19.997 10.238C19.9939 10.3693 19.965 10.4987 19.9119 10.6189C19.8588 10.739 19.7825 10.8475 19.6875 10.9382C19.5924 11.0289 19.4805 11.1 19.358 11.1474C19.2355 11.1948 19.1048 11.2176 18.9735 11.2145C18.8422 11.2114 18.7127 11.1825 18.5926 11.1294C18.4725 11.0763 18.364 11 18.2733 10.905C18.1826 10.8099 18.1115 10.698 18.0641 10.5755C18.0167 10.453 17.9939 10.3223 17.997 10.191L18 10L17.998 9.809C17.9948 9.67767 18.0175 9.547 18.0649 9.42445C18.1122 9.3019 18.1832 9.18988 18.2738 9.09478C18.3645 8.99969 18.473 8.92338 18.5931 8.87023C18.7132 8.81707 18.8427 8.78811 18.974 8.785ZM18.54 4.794C18.622 4.92933 18.7013 5.06667 18.778 5.206C18.841 5.32123 18.8808 5.44776 18.8949 5.57834C18.909 5.70893 18.8973 5.84102 18.8604 5.96707C18.8235 6.09313 18.7621 6.21068 18.6798 6.31302C18.5974 6.41535 18.4957 6.50047 18.3805 6.5635C18.1478 6.6908 17.874 6.72044 17.6194 6.6459C17.3648 6.57135 17.1503 6.39873 17.023 6.166C16.9623 6.05451 16.8989 5.94448 16.833 5.836C16.763 5.72389 16.716 5.59902 16.6946 5.46862C16.6732 5.33821 16.6778 5.20486 16.7083 5.07626C16.7387 4.94767 16.7943 4.82638 16.8719 4.71941C16.9495 4.61244 17.0476 4.52192 17.1604 4.45306C17.2731 4.38421 17.3985 4.3384 17.5291 4.31827C17.6597 4.29814 17.793 4.3041 17.9213 4.33581C18.0496 4.36751 18.1703 4.42433 18.2765 4.50297C18.3827 4.58162 18.4723 4.68053 18.54 4.794ZM2.835 4.462C2.9471 4.53046 3.04462 4.62035 3.12198 4.72651C3.19934 4.83267 3.25503 4.95303 3.28586 5.08072C3.31669 5.20841 3.32206 5.34092 3.30167 5.47068C3.28127 5.60045 3.23551 5.72492 3.167 5.837C3.10033 5.945 3.037 6.055 2.977 6.167C2.84956 6.39973 2.6349 6.5723 2.38022 6.64675C2.12555 6.7212 1.85173 6.69144 1.619 6.564C1.38627 6.43656 1.2137 6.2219 1.13925 5.96722C1.0648 5.71255 1.09456 5.43873 1.222 5.206C1.29867 5.066 1.378 4.92867 1.46 4.794C1.52846 4.6819 1.61835 4.58438 1.72451 4.50702C1.83067 4.42966 1.95103 4.37397 2.07872 4.34314C2.20641 4.31231 2.33892 4.30694 2.46868 4.32733C2.59845 4.34773 2.72292 4.39349 2.835 4.462ZM14.794 1.222C14.934 1.29867 15.0713 1.378 15.206 1.46C15.4324 1.59831 15.5945 1.82088 15.6568 2.07874C15.719 2.3366 15.6763 2.60864 15.538 2.835C15.3997 3.06136 15.1771 3.22351 14.9193 3.28577C14.6614 3.34803 14.3894 3.30531 14.163 3.167C14.0545 3.10106 13.9445 3.03771 13.833 2.977C13.6003 2.84956 13.4277 2.6349 13.3532 2.38022C13.2788 2.12555 13.3086 1.85173 13.436 1.619C13.5634 1.38627 13.7781 1.2137 14.0328 1.13925C14.2875 1.0648 14.5613 1.09456 14.794 1.222ZM6.564 1.619C6.62712 1.73428 6.6669 1.86087 6.68105 1.99154C6.69521 2.1222 6.68347 2.25438 6.64651 2.3805C6.60954 2.50663 6.54808 2.62423 6.46563 2.72658C6.38318 2.82893 6.28136 2.91403 6.166 2.977C6.05451 3.03771 5.94448 3.10106 5.836 3.167C5.60993 3.29727 5.34191 3.33403 5.08912 3.26942C4.83633 3.20482 4.6188 3.04398 4.48295 2.82122C4.34711 2.59846 4.3037 2.33143 4.362 2.07712C4.4203 1.8228 4.57569 1.60134 4.795 1.46C4.93033 1.378 5.06767 1.29867 5.207 1.222C5.43961 1.09476 5.71323 1.0651 5.96769 1.13955C6.22216 1.214 6.43665 1.38645 6.564 1.619ZM10.238 0.00300002C10.5032 0.00923261 10.7551 0.120567 10.9382 0.31251C11.1214 0.504454 11.2207 0.761284 11.2145 1.0265C11.2083 1.29172 11.0969 1.54359 10.905 1.72672C10.713 1.90985 10.4562 2.00923 10.191 2.003L10 2L9.809 2.002C9.54378 2.00823 9.28695 1.90885 9.09501 1.72572C8.90307 1.54259 8.79173 1.29072 8.7855 1.0255C8.77927 0.760284 8.87865 0.503454 9.06178 0.31151C9.24491 0.119567 9.49678 0.00823268 9.762 0.00200009L10 0L10.238 0.00300002Z" fill="#F05230"/>
</svg>
